# xmcd
#
# Track frame offsets:
#	150
#	27379
#	52908
#	67744
#	83075
#	98955
#	127818
#	163881
#	177457
#	196922
#	218624
#	238475
#
# Disc length: 3464 seconds
#
# Revision: 1
# Processed by: cddbd v1.4PL0 Copyright (c) Steve Scherf et al.
# Submitted via: CDmax 1.9
#
DISCID=9f0d860c
DTITLE=Various Artist - Blues Sampler #1
DYEAR=2002
DGENRE=Blues
TTITLE0=Chicago Kingsnakes - Black T-Bird
TTITLE1=Eddy The Chief Clearwater - Cool Blues Walk
TTITLE2=Howard Guitar Luedtke - You Make Me Feel Alright
TTITLE3=TModel Ford - She Asked Me And So I Told Her
TTITLE4=TModel Ford - Sail On
TTITLE5=Johnny Copeland - Ain't Nothin But A Party
TTITLE6=Johnny Copeland - Johnny Gone
TTITLE7=Johnny Copeland - Everybody Wants A Piece Of Me
TTITLE8=Johnny Copeland - When The Rain Starts Fallin
TTITLE9=Son Seals - Bad Blood
TTITLE10=Mike Lowry Band - Trying To Get Over You
TTITLE11=Michael Locke - Austin Backwash
EXTD=
EXTT0=
EXTT1=
EXTT2=
EXTT3=
EXTT4=
EXTT5=
EXTT6=
EXTT7=
EXTT8=
EXTT9=
EXTT10=
EXTT11=Live
PLAYORDER=
